<svg width="60" height="60" viewBox="0 0 60 60" fill="none" xmlns="http://www.w3.org/2000/svg">
<g opacity="0.8">
<path fill-rule="evenodd" clip-rule="evenodd" d="M7.5758 9.86834L9.75151 7.69263L18.8436 16.7847C22.488 15.3201 26.3926 14.5799 30.3376 14.6161C38.7437 14.6161 47.936 17.6007 57.0776 28.5891C57.7707 29.4023 57.7707 30.5983 57.0776 31.4115C52.7668 36.5928 48.4453 39.9946 44.2019 42.1431L52.8426 50.7837L50.6669 52.9594L7.5758 9.86834ZM39.6735 37.6146L35.9187 33.8598C36.6928 32.7417 37.1247 31.3998 37.1253 30.0007C37.1206 26.2539 34.0844 23.2176 30.3376 23.213C29.5941 23.213 28.9914 23.8157 28.9914 24.5591C28.9914 25.3026 29.5941 25.9053 30.3376 25.9053C32.2419 25.9001 33.8971 27.2118 34.3271 29.067C34.5556 30.053 34.4058 31.0533 33.9583 31.8994L22.7243 20.6654C25.567 18.3437 29.3627 17.4143 33.0306 18.2538C37.5351 19.2848 41.0528 22.8018 42.0846 27.3061C42.9249 30.9746 41.9956 34.7712 39.6735 37.6146ZM41.5823 39.5235L41.8969 39.838C46.2606 37.8365 50.3249 34.5944 54.2437 30.0007C50.0245 25.0568 45.6468 21.6791 40.8983 19.7284C46.2435 25.1947 46.4715 33.7902 41.5823 39.5235Z" fill="#E6E6E6"/>
<path d="M20.2433 36.6051C22.4703 40.0104 26.2663 42.0608 30.3352 42.056C31.9965 42.0553 33.6395 41.709 35.1598 41.0391L38.4675 44.343C35.8146 45.0478 33.08 45.3983 30.3352 45.3853C21.9282 45.3853 12.7352 42.3999 3.59285 31.4084C2.90134 30.597 2.90134 29.4036 3.59285 28.5922C6.44476 25.0611 9.82577 21.9926 13.6159 19.4953L15.8513 21.7314C12.2891 23.9667 9.10823 26.7585 6.42977 30.0007C10.649 34.943 15.0259 38.3207 19.7744 40.2722C15.3156 35.7153 14.3082 28.8012 17.2813 23.1614L19.2952 25.1745C17.6597 28.9002 18.0164 33.1998 20.2433 36.6051Z" fill="#E6E6E6"/>
<path d="M30.8805 36.7598C30.6998 36.7744 30.519 36.7875 30.3351 36.7875C26.5886 36.7833 23.5525 33.7472 23.5482 30.0006C23.549 29.836 23.5803 29.673 23.6405 29.5198L30.8805 36.7598Z" fill="#E6E6E6"/>
</g>
</svg>
